<svg width="225.67590942382813px" height="120.8px" xmlns="http://www.w3.org/2000/svg" viewBox="137.16204528808595 14.600000000000001 225.67590942382813 120.8" style="background: rgba(0, 0, 0, 0);" preserveAspectRatio="xMidYMid"><defs><filter id="editing-raise" x="-100%" y="-100%" width="300%" height="300%"><feFlood flood-color="#ccc" result="flood-surface"></feFlood><feFlood flood-color="#777" result="flood-extrude"></feFlood><feMorphology operator="erode" in="SourceAlpha" radius="1" result="erode"></feMorphology><feConvolveMatrix in="erode" result="shadow" order="11,8" divisor="1" kernelMatrix="0 0 0 1 1 1 1 1 0 0 0 0 0 1 0 0 0 0 0 1 0 0 0 0 1 0 0 0 0 0 1 0 0 0 0 1 0 0 0 0 0 1 0 0 0 0 1 0 0 0 0 0 1 0 0 0 0 0 1 0 0 0 1 0 0 0 0 0 0 1 1 0 1 1 0 0 0 0 0 0 0 0 1 0 0 0 0 0"></feConvolveMatrix><feOffset dx="0" dy="4" in="shadow" result="offset"></feOffset><feGaussianBlur in="offset" stdDeviation="0.2" result="blur"></feGaussianBlur><feComposite operator="in" in="flood-extrude" in2="blur" result="extrude"></feComposite><feMorphology operator="erode" in="SourceAlpha" radius="1" result="erode2"></feMorphology><feConvolveMatrix in="erode2" result="out" order="4,4" divisor="1" kernelMatrix="0 1 1 0 1 0 0 1 1 0 0 1 0 1 1 0 "></feConvolveMatrix><feComposite operator="in" in="flood-surface" in2="out" result="text"></feComposite><feMerge><feMergeNode in="extrude"></feMergeNode><feMergeNode in="text"></feMergeNode></feMerge></filter></defs><g filter="url(#editing-raise)"><g transform="translate(176.71388053894043, 97.39999961853027)"><path d="M29.18 1.28L29.18 1.28L29.18 1.28Q20.99 1.28 20.22-10.37L20.22-10.37L9.22-10.37L9.22-10.37Q7.94-7.42 7.04-4.86L7.04-4.86L5.38 0L-3.58 0L16.58-42.24L30.34-42.24L33.02-11.14L33.02-11.14Q33.66-4.42 36.22-2.43L36.22-2.43L36.22-2.43Q34.37 1.28 29.18 1.28ZM14.72-23.17L11.20-15.04L20.03-15.04L19.26-31.49L19.26-33.22L14.72-23.17ZM65.15-20.61L78.08-21.76L78.08-21.76Q73.47-11.65 73.47 0.06L73.47 0.06L73.47 0.06Q71.74 1.28 69.22 1.28L69.22 1.28L69.22 1.28Q66.69 1.28 65.09 0.10L65.09 0.10L65.09 0.10Q63.49-1.09 63.17-2.30L63.17-2.30L63.17-2.30Q61.57-0.64 58.98 0.32L58.98 0.32L58.98 0.32Q56.38 1.28 53.63 1.28L53.63 1.28L53.63 1.28Q50.88 1.28 48.48 0.38L48.48 0.38L48.48 0.38Q46.08-0.51 44.22-2.50L44.22-2.50L44.22-2.50Q40.13-6.85 40.13-15.10L40.13-15.10L40.13-15.10Q40.13-27.90 46.98-35.58L46.98-35.58L46.98-35.58Q54.02-43.52 66.50-43.52L66.50-43.52L66.50-43.52Q75.14-43.52 78.21-39.04L78.21-39.04L78.21-39.04Q79.17-37.63 79.17-35.94L79.17-35.94L79.17-35.94Q79.17-34.24 78.43-32.80L78.43-32.80L78.43-32.80Q77.70-31.36 76.54-30.21L76.54-30.21L76.54-30.21Q73.79-27.65 70.40-27.65L70.40-27.65L70.40-27.65Q69.06-27.65 67.78-28.10L67.78-28.10L67.78-28.10Q68.03-30.02 68.03-32.26L68.03-32.26L68.03-32.26Q68.03-34.50 67.87-35.52L67.87-35.52L67.87-35.52Q67.71-36.54 67.33-37.38L67.33-37.38L67.33-37.38Q66.50-39.10 64.67-39.10L64.67-39.10L64.67-39.10Q62.85-39.10 60.83-37.15L60.83-37.15L60.83-37.15Q58.82-35.20 57.22-32L57.22-32L57.22-32Q53.70-24.83 53.70-16.19L53.70-16.19L53.70-16.19Q53.70-12.22 55.23-9.41L55.23-9.41L55.23-9.41Q56.90-6.34 59.84-6.34L59.84-6.34L59.84-6.34Q60.86-6.34 61.79-6.85L61.79-6.85L61.79-6.85Q62.72-7.36 63.10-7.74L63.10-7.74L65.15-20.61ZM94.34 0L80.64 0L88.45-42.05L88.45-42.05Q94.78-42.75 104.03-42.75L104.03-42.75L104.03-42.75Q113.28-42.75 117.57-40.06L117.57-40.06L117.57-40.06Q121.86-37.38 121.86-31.97L121.86-31.97L121.86-31.97Q121.86-26.56 119.07-23.17L119.07-23.17L119.07-23.17Q116.29-19.78 111.49-18.69L111.49-18.69L111.49-18.69Q112.58-13.38 115.07-9.09L115.07-9.09L115.07-9.09Q117.38-5.06 120.06-3.78L120.06-3.78L120.06-3.78Q119.10-1.09 117.15 0.10L117.15 0.10L117.15 0.10Q115.20 1.28 112.42 1.28L112.42 1.28L112.42 1.28Q109.63 1.28 107.46-0.35L107.46-0.35L107.46-0.35Q105.28-1.98 103.55-4.99L103.55-4.99L103.55-4.99Q99.90-11.52 99.52-21.82L99.52-21.82L99.97-21.82L99.97-21.82Q104.70-21.95 107.07-24.42L107.07-24.42L107.07-24.42Q109.44-26.88 109.44-32.06L109.44-32.06L109.44-32.06Q109.44-38.53 104-38.78L104-38.78L102.59-38.78L102.59-38.78Q102.02-38.78 101.70-38.72L101.70-38.72L94.34 0ZM138.05 0L124.10 0L132.22-42.24L146.30-42.24L138.05 0Z"></path></g></g><style>text {
  font-size: 64px;
  font-family: Arial Black;
  dominant-baseline: central;
  text-anchor: middle;
}</style></svg>